<svg aria-hidden="true" style="position: absolute; width: 0; height: 0; overflow: hidden;" version="1.1" xmlns="http://www.w3.org/2000/svg" xmlns:xlink="http://www.w3.org/1999/xlink">
<defs>
<symbol id="icon-envelope" viewBox="0 0 32 32">
<path fill="#757575" style="fill: var(--color1, #757575)" d="M29 4h-26c-1.66 0-3 1.34-3 3v18c0 1.66 1.34 3 3 3h26c1.66 0 3-1.34 3-3v-18c0-1.66-1.34-3-3-3zM29 6c0.002-0 0.005-0 0.008-0 0.142 0 0.276 0.029 0.398 0.083l-0.006-0.003-13.4 11.6-13.4-11.6c0.116-0.051 0.25-0.080 0.392-0.080 0.003 0 0.006 0 0.008 0h26zM29 26h-26c-0.552 0-1-0.448-1-1v0-16.8l13.34 11.56c0.175 0.154 0.407 0.249 0.66 0.249s0.485-0.094 0.661-0.25l-0.001 0.001 13.34-11.56v16.8c0 0.552-0.448 1-1 1v0z"></path>
</symbol>
<symbol id="icon-envelope-hover" viewBox="0 0 32 32">
<path fill="#2196f3" style="fill: var(--color2, #2196f3)" d="M29 4h-26c-1.66 0-3 1.34-3 3v18c0 1.66 1.34 3 3 3h26c1.66 0 3-1.34 3-3v-18c0-1.66-1.34-3-3-3zM29 6c0.002-0 0.005-0 0.008-0 0.142 0 0.276 0.029 0.398 0.083l-0.006-0.003-13.4 11.6-13.4-11.6c0.116-0.051 0.25-0.080 0.392-0.080 0.003 0 0.006 0 0.008 0h26zM29 26h-26c-0.552 0-1-0.448-1-1v0-16.8l13.34 11.56c0.175 0.154 0.407 0.249 0.66 0.249s0.485-0.094 0.661-0.25l-0.001 0.001 13.34-11.56v16.8c0 0.552-0.448 1-1 1v0z"></path>
</symbol>
<symbol id="icon-facebook" viewBox="0 0 32 32">
<path fill="#afb1b8" style="fill: var(--color3, #afb1b8)" d="M21.328 5.312h2.923v-5.088c-1.232-0.143-2.66-0.224-4.108-0.224-0.052 0-0.104 0-0.156 0l0.008-0c-4.213 0-7.099 2.65-7.099 7.52v4.48h-4.646v5.688h4.646v14.312h5.699v-14.31h4.459l0.707-5.688h-5.168v-3.922c0-1.643 0.443-2.768 2.734-2.768z"></path>
</symbol>
<symbol id="icon-instagram" viewBox="0 0 32 32">
<path fill="#afb1b8" style="fill: var(--color3, #afb1b8)" d="M31.968 9.408c-0.024-1.403-0.292-2.735-0.763-3.968l0.027 0.080c-0.427-1.109-1.058-2.054-1.854-2.83l-0.002-0.002c-0.8-0.8-1.76-1.44-2.832-1.84-1.151-0.448-2.483-0.721-3.875-0.752l-0.013-0c-1.458-0.070-3.167-0.109-4.885-0.109-0.6 0-1.199 0.005-1.797 0.014l0.090-0.001c-4.352 0-4.896 0.016-6.592 0.096-1.712 0.064-2.88 0.352-3.888 0.736-1.072 0.416-2.032 1.040-2.832 1.856-0.816 0.8-1.44 1.76-1.856 2.832-0.443 1.152-0.711 2.485-0.736 3.877l-0 0.011c-0.070 1.458-0.109 3.167-0.109 4.885 0 0.6 0.005 1.199 0.014 1.797l-0.001-0.090c0 4.352 0 4.896 0.080 6.592 0.030 1.405 0.303 2.737 0.779 3.968l-0.027-0.080c0.4 1.072 1.040 2.032 1.856 2.832 0.8 0.816 1.76 1.44 2.832 1.856 1.008 0.384 2.176 0.656 3.872 0.736 1.712 0.080 2.24 0.096 6.592 0.096s4.896-0.016 6.608-0.096c1.397-0.026 2.724-0.294 3.952-0.763l-0.080 0.027c2.16-0.851 3.837-2.528 4.669-4.633l0.019-0.055c0.384-1.024 0.672-2.176 0.736-3.888 0.080-1.696 0.096-2.24 0.096-6.592 0-4.336 0-4.88-0.080-6.592zM29.088 22.48c-0.064 1.552-0.32 2.4-0.544 2.96-0.552 1.401-1.639 2.488-3.004 3.027l-0.036 0.013c-0.56 0.224-1.424 0.48-2.976 0.544-1.68 0.080-2.192 0.096-6.464 0.096-0.465 0.007-1.013 0.011-1.562 0.011-1.724 0-3.439-0.039-5.144-0.116l0.242 0.009c-1.568-0.064-2.4-0.32-2.96-0.544-0.722-0.271-1.337-0.68-1.839-1.199l-0.001-0.001c-0.518-0.5-0.926-1.108-1.189-1.79l-0.011-0.034c-0.336-0.884-0.535-1.905-0.544-2.972l-0-0.004c-0.068-1.463-0.107-3.179-0.107-4.903 0-0.549 0.004-1.097 0.012-1.643l-0.001 0.083c0-4.272 0.016-4.784 0.096-6.464 0.064-1.568 0.32-2.4 0.544-2.976 0.256-0.688 0.656-1.312 1.2-1.824 0.504-0.519 1.118-0.928 1.806-1.189l0.034-0.011c0.56-0.224 1.408-0.48 2.976-0.544 1.68-0.080 2.192-0.096 6.448-0.096 4.288 0 4.8 0 6.464 0.096 1.568 0.064 2.4 0.32 2.976 0.544 0.688 0.256 1.328 0.656 1.84 1.2 0.528 0.512 0.944 1.136 1.2 1.824 0.208 0.576 0.48 1.424 0.544 2.976 0.080 1.68 0.096 2.192 0.096 6.464s-0.016 4.768-0.096 6.464z"></path>
<path fill="#afb1b8" style="fill: var(--color3, #afb1b8)" d="M16.064 7.776c-4.542 0-8.224 3.682-8.224 8.224s3.682 8.224 8.224 8.224v0c4.542 0 8.224-3.682 8.224-8.224s-3.682-8.224-8.224-8.224v0zM16.064 21.328c-2.943 0-5.328-2.385-5.328-5.328s2.385-5.328 5.328-5.328v0c2.943 0 5.328 2.385 5.328 5.328s-2.385 5.328-5.328 5.328v0zM26.528 7.456c0 1.060-0.86 1.92-1.92 1.92s-1.92-0.86-1.92-1.92v0c0-1.060 0.86-1.92 1.92-1.92s1.92 0.86 1.92 1.92v0z"></path>
</symbol>
<symbol id="icon-linkedin" viewBox="0 0 32 32">
<path fill="#afb1b8" style="fill: var(--color3, #afb1b8)" d="M32 32v-11.744c0-5.728-1.232-10.16-7.952-10.16-0.076-0.003-0.166-0.005-0.256-0.005-2.555 0-4.788 1.376-5.999 3.428l-0.018 0.032h-0.096v-2.912h-6.368v21.36h6.64v-10.576c0-2.784 0.528-5.488 3.968-5.488 3.408 0 3.456 3.184 3.456 5.664v10.4h6.624zM0.528 10.64h6.64v21.36h-6.64v-21.36zM3.84 0c-2.121 0-3.84 1.719-3.84 3.84v0c-0 0.005-0 0.010-0 0.016 0 2.127 1.715 3.854 3.838 3.872h0.002c2.128 0 3.84-1.76 3.84-3.888 0-2.121-1.719-3.84-3.84-3.84v0z"></path>
</symbol>
<symbol id="icon-smartphone" viewBox="0 0 32 32">
<path fill="#757575" style="fill: var(--color1, #757575)" d="M23 0h-14c-1.66 0-3 1.34-3 3v26c0 1.66 1.34 3 3 3h14c1.66 0 3-1.34 3-3v-26c0-1.66-1.34-3-3-3zM9 2h14c0.56 0 1 0.44 1 1v21h-16v-21c0-0.56 0.44-1 1-1zM23 30h-14c-0.552 0-1-0.448-1-1v0-3h16v3c0 0.552-0.448 1-1 1v0z"></path>
<path fill="#757575" style="fill: var(--color1, #757575)" d="M10.7 27.48c0.4 0.36 0.4 0.96 0 1.32-0.186 0.164-0.431 0.264-0.7 0.264s-0.514-0.1-0.701-0.265l0.001 0.001c-0.177-0.165-0.288-0.399-0.288-0.66s0.111-0.495 0.288-0.659l0.001-0.001c0.4-0.36 1-0.36 1.4 0z"></path>
</symbol>
<symbol id="icon-smartphone" viewBox="0 0 32 32">
<path fill="#2196f3" style="fill: var(--color1, #2196f3)" d="M23 0h-14c-1.66 0-3 1.34-3 3v26c0 1.66 1.34 3 3 3h14c1.66 0 3-1.34 3-3v-26c0-1.66-1.34-3-3-3zM9 2h14c0.56 0 1 0.44 1 1v21h-16v-21c0-0.56 0.44-1 1-1zM23 30h-14c-0.552 0-1-0.448-1-1v0-3h16v3c0 0.552-0.448 1-1 1v0z"></path>
<path fill="#2196f3" style="fill: var(--color1, #2196f3)" d="M10.7 27.48c0.4 0.36 0.4 0.96 0 1.32-0.186 0.164-0.431 0.264-0.7 0.264s-0.514-0.1-0.701-0.265l0.001 0.001c-0.177-0.165-0.288-0.399-0.288-0.66s0.111-0.495 0.288-0.659l0.001-0.001c0.4-0.36 1-0.36 1.4 0z"></path>
</symbol>
<symbol id="icon-twitter" viewBox="0 0 32 32">
<path fill="#afb1b8" style="fill: var(--color3, #afb1b8)" d="M32 6.080c-1.184 0.528-2.464 0.864-3.776 1.040 1.36-0.816 2.4-2.080 2.88-3.632-1.28 0.752-2.672 1.28-4.16 1.6-1.202-1.298-2.915-2.107-4.817-2.107-3.623 0-6.56 2.937-6.56 6.56 0 0.538 0.065 1.060 0.187 1.56l-0.009-0.045c-5.462-0.281-10.265-2.883-13.477-6.83l-0.027-0.034c-0.558 0.949-0.887 2.089-0.887 3.307 0 2.26 1.134 4.255 2.865 5.446l0.022 0.014c-1.040 0-2.080-0.32-2.96-0.8v0.064c0 3.2 2.272 5.84 5.264 6.448-0.518 0.147-1.113 0.232-1.728 0.232-0.442 0-0.873-0.044-1.29-0.127l0.042 0.007c0.878 2.623 3.284 4.493 6.136 4.56l0.008 0c-2.221 1.763-5.066 2.828-8.159 2.828-0.547 0-1.087-0.033-1.617-0.098l0.064 0.006c2.826 1.846 6.286 2.944 10.003 2.944 0.022 0 0.043-0 0.065-0h-0.003c12.080 0 18.672-10 18.672-18.672 0-0.288 0-0.576-0.032-0.848 1.312-0.928 2.4-2.080 3.296-3.408z"></path>
</symbol>
</defs>
</svg>
